<?xml version="1.0" standalone="no"?>
<!DOCTYPE svg PUBLIC "-//W3C//DTD SVG 20010904//EN"
 "http://www.w3.org/TR/2001/REC-SVG-20010904/DTD/svg10.dtd">
<svg version="1.0" xmlns="http://www.w3.org/2000/svg"
 width="700.000000pt" height="700.000000pt" viewBox="0 0 700.000000 700.000000"
 preserveAspectRatio="xMidYMid meet">
<metadata>
Created by potrace 1.11, written by Peter Selinger 2001-2013
</metadata>
<g transform="translate(0.000000,700.000000) scale(0.100000,-0.100000)"
fill="#000000" stroke="none">
<path d="M1385 6598 c-40 -11 -59 -26 -80 -68 -18 -34 -18 -152 -19 -3015 -1
-1639 3 -2996 7 -3017 10 -42 51 -85 93 -97 16 -4 207 -7 424 -7 437 1 434 1
477 65 l23 34 0 1773 c0 1175 3 1774 10 1775 42 6 45 3 56 -46 46 -204 75
-332 110 -495 3 -14 68 -313 145 -665 78 -352 150 -683 161 -735 11 -52 21
-102 23 -110 8 -31 156 -706 161 -730 3 -14 14 -63 24 -110 10 -47 21 -96 24
-110 4 -24 36 -167 56 -255 5 -22 19 -85 30 -140 38 -178 66 -225 146 -243 64
-14 484 -8 513 7 40 22 69 63 85 121 13 47 88 386 181 815 36 167 38 179 41
195 2 8 8 33 13 55 6 22 22 94 36 160 14 66 30 138 35 160 9 36 114 515 126
575 3 14 11 53 19 86 8 34 16 73 19 85 2 13 9 44 15 69 5 25 12 56 15 70 3 14
12 59 21 100 9 41 18 82 20 90 114 526 228 1037 233 1042 4 3 16 8 27 10 20 3
20 -4 25 -1779 l5 -1782 21 -28 c43 -58 42 -58 489 -58 441 0 450 1 489 52 10
14 21 50 25 81 3 32 6 1387 5 3012 -1 2776 -2 2957 -18 2991 -10 21 -32 44
-52 55 -33 18 -65 19 -582 19 -301 0 -563 -4 -583 -8 -40 -8 -86 -48 -101 -87
-12 -31 -37 -125 -44 -165 -2 -16 -16 -79 -30 -140 -14 -60 -27 -121 -30 -135
-3 -14 -9 -41 -14 -60 -5 -19 -11 -46 -14 -60 -7 -36 -11 -54 -57 -260 -43
-195 -45 -202 -58 -265 -5 -22 -28 -123 -51 -225 -23 -102 -46 -203 -50 -225
-5 -22 -20 -89 -34 -150 -14 -60 -28 -125 -31 -144 -3 -19 -8 -37 -10 -41 -2
-4 -7 -21 -10 -38 -3 -17 -35 -162 -71 -324 -36 -161 -75 -333 -85 -383 -11
-49 -22 -97 -24 -105 -2 -8 -15 -69 -29 -135 -15 -66 -31 -140 -37 -165 -6
-25 -12 -52 -14 -60 -2 -8 -24 -107 -49 -220 -25 -113 -48 -214 -50 -225 -31
-148 -82 -365 -86 -365 -4 0 -181 781 -206 904 -4 19 -16 76 -54 237 -11 48
-29 131 -41 185 -12 55 -25 115 -29 134 -4 19 -15 69 -24 110 -9 41 -23 102
-31 135 -8 33 -16 71 -19 85 -3 14 -21 97 -41 185 -20 88 -39 171 -41 185 -3
14 -16 72 -29 130 -29 125 -94 417 -99 445 -2 11 -11 50 -20 86 -8 37 -17 78
-20 90 -5 30 -62 284 -81 364 -12 51 -46 204 -60 270 -71 339 -86 379 -150
421 -28 18 -54 19 -585 20 -305 0 -568 -3 -585 -8z"/>
</g>
</svg>
